<?xml version="1.0" encoding="UTF-8" standalone="no"?>
<!-- Created with Inkscape (http://www.inkscape.org/) -->

<svg
   width="256"
   height="96"
   viewBox="0 0 67.733332 25.399999"
   version="1.1"
   id="svg5"
   xml:space="preserve"
   inkscape:version="1.2.2 (b0a8486541, 2022-12-01)"
   sodipodi:docname="10years_zh.svg"
   xmlns:inkscape="http://www.inkscape.org/namespaces/inkscape"
   xmlns:sodipodi="http://sodipodi.sourceforge.net/DTD/sodipodi-0.dtd"
   xmlns="http://www.w3.org/2000/svg"
   xmlns:svg="http://www.w3.org/2000/svg"><sodipodi:namedview
     id="namedview7"
     pagecolor="#505050"
     bordercolor="#ffffff"
     borderopacity="1"
     inkscape:showpageshadow="0"
     inkscape:pageopacity="0"
     inkscape:pagecheckerboard="1"
     inkscape:deskcolor="#505050"
     inkscape:document-units="px"
     showgrid="false"
     inkscape:zoom="1.6106622"
     inkscape:cx="81.333007"
     inkscape:cy="67.674029"
     inkscape:window-width="1920"
     inkscape:window-height="1026"
     inkscape:window-x="0"
     inkscape:window-y="32"
     inkscape:window-maximized="1"
     inkscape:current-layer="g827" /><defs
     id="defs2" /><g
     inkscape:label="Layer 1"
     inkscape:groupmode="layer"
     id="layer1"><rect
       style="fill:#000000;stroke-width:1.26862;stop-color:#000000"
       id="rect234"
       width="67.73333"
       height="25.4"
       x="8.8817842e-16"
       y="0"
       ry="8.4666662" /><g
       id="g827"
       transform="translate(0.37569487)"><g
         id="g1434"
         transform="matrix(1.9727918,0,0,1.9727918,39.17987,44.133268)"><path
           d="m -5.9697024,-12.005814 h 1.4075789 v -7.821058 h -2.3918258 v 1.322912 h 0.9842469 z"
           style="font-weight:bold;font-size:10.5833px;line-height:1.25;font-family:'URW Gothic';-inkscape-font-specification:'URW Gothic';letter-spacing:0px;word-spacing:0px;fill:#00b0f0;fill-opacity:1;stroke-width:0.264583"
           id="path512" /><g
           id="g598"><path
             id="rect835"
             style="fill:#ffff00;fill-opacity:1;stroke:none;stroke-width:0.0494061;stop-color:#000000"
             d="m 0.71571857,-19.964672 v 1.407666 a 2.6236734,2.6236734 0 0 1 2.62361243,2.623612 h 1.4076659 a 4.0312523,4.0312521 0 0 0 -4.03127833,-4.031278 z" /><path
             id="path833-6"
             style="fill:#00b0f0;fill-opacity:1;stroke:none;stroke-width:0.0826363;stop-color:#000000"
             d="m 0.71571857,-19.964672 a 4.0312523,4.0312523 0 0 0 -4.03127837,4.031278 4.0312523,4.0312523 0 0 0 4.03127837,4.031278 4.0312523,4.0312523 0 0 0 4.03127833,-4.031278 H 3.339331 a 2.6236734,2.6236734 0 0 1 -2.62361243,2.623612 2.6236734,2.6236734 0 0 1 -2.62361237,-2.623612 2.6236734,2.6236734 0 0 1 2.62361237,-2.623612 z m 0.12454019,0.0021 a 4.0312526,4.0312523 0 0 1 0.0186035,5.17e-4 4.0312523,4.0312523 0 0 0 -0.0186035,-5.17e-4 z m 0.19068604,0.01034 a 4.0312526,4.0312523 0 0 1 0.014469,0.0015 4.0312523,4.0312523 0 0 0 -0.014469,-0.0015 z m 0.1054199,0.0098 a 4.0312526,4.0312523 0 0 1 0.018087,0.0021 4.0312523,4.0312523 0 0 0 -0.018087,-0.0021 z m 0.041858,0.0046 a 4.0312526,4.0312523 0 0 1 0.042375,0.0052 4.0312523,4.0312523 0 0 0 -0.042375,-0.0052 z m 0.1054199,0.01344 a 4.0312526,4.0312523 0 0 1 0.020671,0.0031 4.0312523,4.0312523 0 0 0 -0.020671,-0.0031 z m 0.041858,0.0062 a 4.0312526,4.0312523 0 0 1 0.01602,0.0026 4.0312523,4.0312523 0 0 0 -0.01602,-0.0026 z m 0.062528,0.01034 a 4.0312526,4.0312523 0 0 1 0.021187,0.0036 4.0312523,4.0312523 0 0 0 -0.021187,-0.0036 z m 0.1875855,0.03617 a 4.0312526,4.0312523 0 0 1 0.018603,0.0041 4.0312523,4.0312523 0 0 0 -0.018603,-0.0041 z m 0.3477824,0.0925 a 4.0312526,4.0312523 0 0 1 0.020154,0.0062 4.0312523,4.0312523 0 0 0 -0.020154,-0.0062 z m 0.6268351,0.256315 a 4.0312526,4.0312523 0 0 1 0.014986,0.0078 4.0312523,4.0312523 0 0 0 -0.014986,-0.0078 z m 0.093534,0.04909 a 4.0312526,4.0312523 0 0 1 0.018604,0.01033 4.0312523,4.0312523 0 0 0 -0.018604,-0.01033 z m 0.055811,0.03101 a 4.0312526,4.0312523 0 0 1 0.018087,0.01034 4.0312523,4.0312523 0 0 0 -0.018087,-0.01034 z m 0.03669,0.02119 a 4.0312526,4.0312523 0 0 1 0.029456,0.01705 4.0312523,4.0312523 0 0 0 -0.029456,-0.01705 z m 0.3550171,0.230994 a 4.0312526,4.0312523 0 0 1 0.011886,0.0093 4.0312523,4.0312523 0 0 0 -0.011886,-0.0093 z m 0.1343587,0.102836 a 4.0312526,4.0312523 0 0 1 0.010852,0.0088 4.0312523,4.0312523 0 0 0 -0.010852,-0.0088 z m 0.2098063,0.1788 a 4.0312526,4.0312523 0 0 1 0.015503,0.01447 4.0312523,4.0312523 0 0 0 -0.015503,-0.01447 z m 0.1819011,0.17725 a 4.0312526,4.0312523 0 0 1 0.012402,0.0124 4.0312523,4.0312523 0 0 0 -0.012402,-0.0124 z m 0.086816,0.09302 a 4.0312526,4.0312523 0 0 1 0.0093,0.0098 4.0312523,4.0312523 0 0 0 -0.0093,-0.0098 z m 0.07028,0.07906 a 4.0312526,4.0312523 0 0 1 0.00879,0.01085 4.0312523,4.0312523 0 0 0 -0.00879,-0.01085 z m 0.133842,0.164331 a 4.0312526,4.0312523 0 0 1 0.00879,0.01189 4.0312523,4.0312523 0 0 0 -0.00879,-0.01189 z M 4.00854,-18.25886 a 4.0312526,4.0312523 0 0 1 0.012402,0.01757 4.0312523,4.0312523 0 0 0 -0.012402,-0.01757 z m 0.024288,0.03462 a 4.0312526,4.0312523 0 0 1 0.012402,0.01757 4.0312523,4.0312523 0 0 0 -0.012402,-0.01757 z m 0.1488281,0.232027 a 4.0312526,4.0312523 0 0 1 0.00517,0.0088 4.0312523,4.0312523 0 0 0 -0.00517,-0.0088 z m 0.3327962,0.708484 a 4.0312526,4.0312523 0 0 1 0.00517,0.01447 4.0312523,4.0312523 0 0 0 -0.00517,-0.01447 z m 0.034106,0.100252 a 4.0312526,4.0312523 0 0 1 0.00413,0.01395 4.0312523,4.0312523 0 0 0 -0.00413,-0.01395 z m 0.031523,0.101286 a 4.0312526,4.0312523 0 0 1 0.00465,0.01654 4.0312523,4.0312523 0 0 0 -0.00465,-0.01654 z m 0.054777,0.204639 a 4.0312526,4.0312523 0 0 1 0.00413,0.01602 4.0312523,4.0312523 0 0 0 -0.00413,-0.01602 z m 0.023771,0.103353 a 4.0312526,4.0312523 0 0 1 0.00413,0.02067 4.0312523,4.0312523 0 0 0 -0.00413,-0.02067 z m 0.03514,0.187068 a 4.0312526,4.0312523 0 0 1 0.00362,0.02119 4.0312523,4.0312523 0 0 0 -0.00362,-0.02119 z m 0.037207,0.294039 a 4.0312526,4.0312523 0 0 1 0.00207,0.02015 4.0312523,4.0312523 0 0 0 -0.00207,-0.02015 z m 0.00672,0.08475 a 4.0312526,4.0312523 0 0 1 0.00258,0.04237 4.0312523,4.0312523 0 0 0 -0.00258,-0.04237 z m 0.00568,0.105937 a 4.0312526,4.0312523 0 0 1 0.00103,0.0186 4.0312523,4.0312523 0 0 0 -0.00103,-0.0186 z" /></g></g><g
         aria-label="力格"
         id="text1438"
         style="font-size:7.15269px;line-height:1.25;font-family:'URW Gothic';-inkscape-font-specification:'URW Gothic';letter-spacing:0px;word-spacing:0px;stroke-width:0.178818"><path
           d="M 9.1810648,9.4898919 H 9.75328 q 0,0.6008261 -0.021458,1.1372781 h 3.00413 q 0,1.165888 -0.02861,1.966989 -0.02146,0.801102 -0.08583,1.380469 -0.06438,0.579368 -0.150207,0.915545 -0.08583,0.329024 -0.243191,0.514993 -0.157359,0.18597 -0.329024,0.243192 -0.164512,0.05722 -0.429161,0.05722 -0.607979,0 -1.423386,-0.07868 v -0.529299 q 0.801102,0.08583 1.294637,0.08583 0.228886,0 0.357635,-0.121596 0.135901,-0.128748 0.250344,-0.536451 0.114443,-0.414856 0.157359,-1.230263 0.05007,-0.815407 0.05722,-2.167265 H 9.7032112 q -0.1215957,1.802478 -0.622284,2.84677 -0.4935356,1.037141 -1.5735918,1.866853 L 7.1282428,15.419472 Q 7.7791376,14.918784 8.1653829,14.40379 8.5587808,13.888796 8.8019723,13.094848 9.0523164,12.293746 9.130996,11.127858 H 7.1568536 V 10.62717 h 1.9956005 q 0.028611,-0.700964 0.028611,-1.1372781 z"
           style="fill:#ffffff"
           id="path300" /><path
           d="m 19.516702,15.090448 v -1.451996 h -2.5249 v 1.451996 z m -5.622015,-4.270156 h 0.901239 V 9.5900296 h 0.543605 v 1.2302624 h 0.708116 v 0.443467 q 0.801101,-0.779643 1.308942,-1.7810198 l 0.529299,0.114443 q -0.10729,0.2217334 -0.278954,0.5292988 h 2.567815 v 0.457772 q -0.543604,0.851171 -1.380469,1.494913 0.758185,0.493535 1.795325,0.879781 l -0.10729,0.493535 q -0.271802,-0.100138 -0.400551,-0.150206 v 2.617884 h -0.565062 v -0.379092 h -2.5249 v 0.379092 h -0.550757 v -2.617884 q -0.214581,0.07153 -0.329024,0.10729 0.01431,0.05007 0.04292,0.135901 0.02861,0.08583 0.05007,0.128749 l -0.407703,0.257496 q -0.03576,-0.128748 -0.457772,-1.401927 v 3.454749 h -0.543605 v -3.247321 q -0.278954,0.915544 -0.729574,1.688035 l -0.321871,-0.493536 q 0.715269,-1.25172 1.008529,-2.63219 h -0.858323 z m 5.915275,2.367541 q -0.786796,-0.34333 -1.451996,-0.801102 -0.736727,0.464925 -1.609355,0.801102 z m -1.444843,-1.40908 q 0.708116,-0.529299 1.187346,-1.1945 h -2.231639 q -0.0072,0.0072 -0.07868,0.100138 0.507841,0.622284 1.122973,1.094362 z m -0.436314,0.29326 q -0.55791,-0.45062 -1.00853,-0.972766 -0.364787,0.436314 -0.708116,0.729575 l -0.37194,-0.37194 q 0.114443,-0.100138 0.171665,-0.15736 h -0.650895 q 0.407703,1.130125 0.586521,1.645119 1.108666,-0.343329 1.981295,-0.872628 z"
           style="fill:#ffffff"
           id="path302" /></g><g
         aria-label="年"
         id="text1438-3"
         style="font-size:7.15269px;line-height:1.25;font-family:'URW Gothic';-inkscape-font-specification:'URW Gothic';letter-spacing:0px;word-spacing:0px;stroke-width:0.178818"><path
           d="m 54.846816,9.4491012 0.536452,0.1072904 q -0.06437,0.207428 -0.207428,0.6222844 h 4.341682 v 0.47923 h -2.26025 v 1.22311 h 2.04567 v 0.47923 h -2.04567 v 1.466301 h 2.596427 v 0.486383 h -2.596427 v 1.637966 H 56.685057 V 14.31293 h -3.268779 v -0.486383 h 1.266026 v -1.945531 h 2.002753 v -1.22311 H 54.98987 q -0.45062,1.080056 -1.065751,1.959837 l -0.45062,-0.321871 q 0.908392,-1.294637 1.373317,-2.8467708 z m 1.838241,2.9111448 h -1.459149 v 1.466301 h 1.459149 z"
           style="fill:#ffffff"
           id="path305" /></g></g><text
       xml:space="preserve"
       style="font-size:10.5833px;line-height:1.25;font-family:'URW Gothic';-inkscape-font-specification:'URW Gothic';letter-spacing:0px;word-spacing:0px;stroke-width:0.264583"
       x="69.018387"
       y="-18.399002"
       id="text740"><tspan
         sodipodi:role="line"
         id="tspan738"
         style="stroke-width:0.264583"
         x="69.018387"
         y="-18.399002" /></text></g></svg>
