<?xml version="1.0" encoding="UTF-8" standalone="no"?>
<!-- Created with Inkscape (http://www.inkscape.org/) -->

<svg
   width="256"
   height="96"
   viewBox="0 0 67.733332 25.399999"
   version="1.1"
   id="svg5"
   xml:space="preserve"
   inkscape:version="1.2.2 (b0a8486541, 2022-12-01)"
   sodipodi:docname="10years_en.svg"
   xmlns:inkscape="http://www.inkscape.org/namespaces/inkscape"
   xmlns:sodipodi="http://sodipodi.sourceforge.net/DTD/sodipodi-0.dtd"
   xmlns="http://www.w3.org/2000/svg"
   xmlns:svg="http://www.w3.org/2000/svg"><sodipodi:namedview
     id="namedview7"
     pagecolor="#505050"
     bordercolor="#ffffff"
     borderopacity="1"
     inkscape:showpageshadow="0"
     inkscape:pageopacity="0"
     inkscape:pagecheckerboard="1"
     inkscape:deskcolor="#505050"
     inkscape:document-units="px"
     showgrid="false"
     inkscape:zoom="1.6106622"
     inkscape:cx="99.338024"
     inkscape:cy="67.674029"
     inkscape:window-width="1920"
     inkscape:window-height="1026"
     inkscape:window-x="0"
     inkscape:window-y="32"
     inkscape:window-maximized="1"
     inkscape:current-layer="g1470" /><defs
     id="defs2" /><g
     inkscape:label="Layer 1"
     inkscape:groupmode="layer"
     id="layer1"><rect
       style="fill:#000000;stroke-width:1.26862;stop-color:#000000"
       id="rect234"
       width="67.73333"
       height="25.4"
       x="8.8817842e-16"
       y="0"
       ry="8.4666662" /><g
       id="g1470"
       transform="translate(0.58549325)"><g
         id="g1434"
         transform="matrix(1.9727918,0,0,1.9727918,19.44873,44.133268)"><path
           d="m -5.9697024,-12.005814 h 1.4075789 v -7.821058 h -2.3918258 v 1.322912 h 0.9842469 z"
           style="font-weight:bold;font-size:10.5833px;line-height:1.25;font-family:'URW Gothic';-inkscape-font-specification:'URW Gothic';letter-spacing:0px;word-spacing:0px;fill:#00b0f0;fill-opacity:1;stroke-width:0.264583"
           id="path512" /><g
           id="g598"><path
             id="rect835"
             style="fill:#ffff00;fill-opacity:1;stroke:none;stroke-width:0.0494061;stop-color:#000000"
             d="m 0.71571857,-19.964672 v 1.407666 a 2.6236734,2.6236734 0 0 1 2.62361243,2.623612 h 1.4076659 a 4.0312523,4.0312521 0 0 0 -4.03127833,-4.031278 z" /><path
             id="path833-6"
             style="fill:#00b0f0;fill-opacity:1;stroke:none;stroke-width:0.0826363;stop-color:#000000"
             d="m 0.71571857,-19.964672 a 4.0312523,4.0312523 0 0 0 -4.03127837,4.031278 4.0312523,4.0312523 0 0 0 4.03127837,4.031278 4.0312523,4.0312523 0 0 0 4.03127833,-4.031278 H 3.339331 a 2.6236734,2.6236734 0 0 1 -2.62361243,2.623612 2.6236734,2.6236734 0 0 1 -2.62361237,-2.623612 2.6236734,2.6236734 0 0 1 2.62361237,-2.623612 z m 0.12454019,0.0021 a 4.0312526,4.0312523 0 0 1 0.0186035,5.17e-4 4.0312523,4.0312523 0 0 0 -0.0186035,-5.17e-4 z m 0.19068604,0.01034 a 4.0312526,4.0312523 0 0 1 0.014469,0.0015 4.0312523,4.0312523 0 0 0 -0.014469,-0.0015 z m 0.1054199,0.0098 a 4.0312526,4.0312523 0 0 1 0.018087,0.0021 4.0312523,4.0312523 0 0 0 -0.018087,-0.0021 z m 0.041858,0.0046 a 4.0312526,4.0312523 0 0 1 0.042375,0.0052 4.0312523,4.0312523 0 0 0 -0.042375,-0.0052 z m 0.1054199,0.01344 a 4.0312526,4.0312523 0 0 1 0.020671,0.0031 4.0312523,4.0312523 0 0 0 -0.020671,-0.0031 z m 0.041858,0.0062 a 4.0312526,4.0312523 0 0 1 0.01602,0.0026 4.0312523,4.0312523 0 0 0 -0.01602,-0.0026 z m 0.062528,0.01034 a 4.0312526,4.0312523 0 0 1 0.021187,0.0036 4.0312523,4.0312523 0 0 0 -0.021187,-0.0036 z m 0.1875855,0.03617 a 4.0312526,4.0312523 0 0 1 0.018603,0.0041 4.0312523,4.0312523 0 0 0 -0.018603,-0.0041 z m 0.3477824,0.0925 a 4.0312526,4.0312523 0 0 1 0.020154,0.0062 4.0312523,4.0312523 0 0 0 -0.020154,-0.0062 z m 0.6268351,0.256315 a 4.0312526,4.0312523 0 0 1 0.014986,0.0078 4.0312523,4.0312523 0 0 0 -0.014986,-0.0078 z m 0.093534,0.04909 a 4.0312526,4.0312523 0 0 1 0.018604,0.01033 4.0312523,4.0312523 0 0 0 -0.018604,-0.01033 z m 0.055811,0.03101 a 4.0312526,4.0312523 0 0 1 0.018087,0.01034 4.0312523,4.0312523 0 0 0 -0.018087,-0.01034 z m 0.03669,0.02119 a 4.0312526,4.0312523 0 0 1 0.029456,0.01705 4.0312523,4.0312523 0 0 0 -0.029456,-0.01705 z m 0.3550171,0.230994 a 4.0312526,4.0312523 0 0 1 0.011886,0.0093 4.0312523,4.0312523 0 0 0 -0.011886,-0.0093 z m 0.1343587,0.102836 a 4.0312526,4.0312523 0 0 1 0.010852,0.0088 4.0312523,4.0312523 0 0 0 -0.010852,-0.0088 z m 0.2098063,0.1788 a 4.0312526,4.0312523 0 0 1 0.015503,0.01447 4.0312523,4.0312523 0 0 0 -0.015503,-0.01447 z m 0.1819011,0.17725 a 4.0312526,4.0312523 0 0 1 0.012402,0.0124 4.0312523,4.0312523 0 0 0 -0.012402,-0.0124 z m 0.086816,0.09302 a 4.0312526,4.0312523 0 0 1 0.0093,0.0098 4.0312523,4.0312523 0 0 0 -0.0093,-0.0098 z m 0.07028,0.07906 a 4.0312526,4.0312523 0 0 1 0.00879,0.01085 4.0312523,4.0312523 0 0 0 -0.00879,-0.01085 z m 0.133842,0.164331 a 4.0312526,4.0312523 0 0 1 0.00879,0.01189 4.0312523,4.0312523 0 0 0 -0.00879,-0.01189 z M 4.00854,-18.25886 a 4.0312526,4.0312523 0 0 1 0.012402,0.01757 4.0312523,4.0312523 0 0 0 -0.012402,-0.01757 z m 0.024288,0.03462 a 4.0312526,4.0312523 0 0 1 0.012402,0.01757 4.0312523,4.0312523 0 0 0 -0.012402,-0.01757 z m 0.1488281,0.232027 a 4.0312526,4.0312523 0 0 1 0.00517,0.0088 4.0312523,4.0312523 0 0 0 -0.00517,-0.0088 z m 0.3327962,0.708484 a 4.0312526,4.0312523 0 0 1 0.00517,0.01447 4.0312523,4.0312523 0 0 0 -0.00517,-0.01447 z m 0.034106,0.100252 a 4.0312526,4.0312523 0 0 1 0.00413,0.01395 4.0312523,4.0312523 0 0 0 -0.00413,-0.01395 z m 0.031523,0.101286 a 4.0312526,4.0312523 0 0 1 0.00465,0.01654 4.0312523,4.0312523 0 0 0 -0.00465,-0.01654 z m 0.054777,0.204639 a 4.0312526,4.0312523 0 0 1 0.00413,0.01602 4.0312523,4.0312523 0 0 0 -0.00413,-0.01602 z m 0.023771,0.103353 a 4.0312526,4.0312523 0 0 1 0.00413,0.02067 4.0312523,4.0312523 0 0 0 -0.00413,-0.02067 z m 0.03514,0.187068 a 4.0312526,4.0312523 0 0 1 0.00362,0.02119 4.0312523,4.0312523 0 0 0 -0.00362,-0.02119 z m 0.037207,0.294039 a 4.0312526,4.0312523 0 0 1 0.00207,0.02015 4.0312523,4.0312523 0 0 0 -0.00207,-0.02015 z m 0.00672,0.08475 a 4.0312526,4.0312523 0 0 1 0.00258,0.04237 4.0312523,4.0312523 0 0 0 -0.00258,-0.04237 z m 0.00568,0.105937 a 4.0312526,4.0312523 0 0 1 0.00103,0.0186 4.0312523,4.0312523 0 0 0 -0.00103,-0.0186 z" /></g></g><g
         aria-label="years of
LiveG"
         id="text1438"
         style="font-size:7.15269px;line-height:1.25;font-family:'URW Gothic';-inkscape-font-specification:'URW Gothic';letter-spacing:0px;word-spacing:0px;stroke-width:0.178818"><path
           d="m 34.746447,11.406282 h 0.565062 l 2.26025,-5.2858377 H 37.006697 L 35.683449,9.2390171 34.446034,6.1204443 h -0.579368 l 1.51637,3.7837729 z"
           style="fill:#ffffff"
           id="path297" /><path
           d="m 41.813296,8.2519459 c 0,-0.5364518 -0.07153,-0.8654755 -0.264649,-1.2088046 -0.350482,-0.6294367 -1.029987,-1.015682 -1.78102,-1.015682 -1.137278,0 -2.024211,0.8940862 -2.024211,2.0313639 0,1.1587358 0.908392,2.0671278 2.067127,2.0671278 0.85117,0 1.616508,-0.5507575 1.902616,-1.3804695 h -0.550757 c -0.221734,0.5364517 -0.772491,0.8940862 -1.366164,0.8940862 -0.808254,0 -1.480607,-0.6151313 -1.523523,-1.3876218 z M 38.28702,7.7727156 c 0.143054,-0.7510324 0.736727,-1.2588734 1.480607,-1.2588734 0.758185,0 1.3304,0.4720775 1.51637,1.2588734 z"
           style="fill:#ffffff"
           id="path299" /><path
           d="M 46.534065,6.1204443 H 46.004766 V 6.8142552 C 45.611368,6.2706508 45.139291,6.0274593 44.459785,6.0274593 c -1.173041,0 -2.059974,0.8869335 -2.059974,2.0599747 0,1.1730411 0.894086,2.038517 2.10289,2.038517 0.665201,0 1.080057,-0.2145811 1.502065,-0.7796436 v 0.6866586 h 0.529299 z m -2.059974,0.3933979 c 0.865475,0 1.530675,0.6723529 1.530675,1.544981 0,0.8940863 -0.658047,1.5807445 -1.502065,1.5807445 -0.886933,0 -1.566439,-0.6938109 -1.566439,-1.5878972 0,-0.8511701 0.686659,-1.5378283 1.537829,-1.5378283 z"
           style="fill:#ffffff"
           id="path301" /><path
           d="m 47.435308,10.032966 h 0.529299 V 7.7512576 c -0.0072,-0.7081163 0.386246,-1.1444304 1.108667,-1.2016519 V 6.0274593 c -0.565062,0.028611 -0.901239,0.2217334 -1.108667,0.6508948 V 6.1204443 h -0.529299 z"
           style="fill:#ffffff"
           id="path303" /><path
           d="m 49.29501,8.8813826 c 0.0072,0.7581851 0.500688,1.2445684 1.258874,1.2445684 0.708116,0 1.194499,-0.5006887 1.194499,-1.2159577 0,-0.4792302 -0.221734,-0.8082539 -0.679506,-1.0013766 C 50.468051,7.6582726 50.43944,7.6511199 50.33215,7.5938984 50.088959,7.4723027 49.974516,7.3077908 49.974516,7.0789047 c 0,-0.3147183 0.250344,-0.5650625 0.565062,-0.5650625 0.343329,0 0.543605,0.2002753 0.572215,0.5722152 h 0.536452 c -0.02146,-0.6294367 -0.472077,-1.0585981 -1.101514,-1.0585981 -0.63659,0 -1.108667,0.4649248 -1.108667,1.1015142 0,0.2861076 0.100138,0.5221464 0.29326,0.7009637 0.164512,0.1502064 0.171665,0.1573591 0.722422,0.3790925 0.607979,0.2503442 0.758185,0.393398 0.758185,0.7510325 0,0.3933979 -0.271802,0.6795055 -0.658047,0.6795055 -0.443467,0 -0.708117,-0.2718022 -0.736728,-0.7581851 z"
           style="fill:#ffffff"
           id="path305" /><path
           d="m 56.276041,6.0274593 c -1.165889,0 -2.052822,0.8797809 -2.052822,2.0242112 0,1.2088046 0.879781,2.0742805 2.095738,2.0742805 1.14443,0 1.988448,-0.8654759 1.988448,-2.038517 0,-1.1944992 -0.85117,-2.0599747 -2.031364,-2.0599747 z m 0,0.4863829 c 0.865475,0 1.494912,0.6652002 1.494912,1.5807445 0,0.9012389 -0.615131,1.544981 -1.466301,1.544981 -0.901239,0 -1.544981,-0.6508948 -1.544981,-1.5735918 0,-0.8869335 0.650894,-1.5521337 1.51637,-1.5521337 z"
           style="fill:#ffffff"
           id="path307" /><path
           d="m 59.330244,10.032966 h 0.529299 V 6.5996745 h 0.972766 V 6.1204443 H 59.859543 C 59.85239,5.4623968 60.109887,5.2335107 60.832309,5.226358 V 4.7471278 c -1.008529,0 -1.51637,0.4649248 -1.502065,1.3733165 h -0.607979 v 0.4792302 h 0.607979 z"
           style="fill:#ffffff"
           id="path309" /><path
           d="m 34.345896,18.973828 h 2.718022 v -0.47923 H 34.875195 V 13.68799 h -0.529299 z"
           style="fill:#ffffff"
           id="path311" /><path
           d="m 37.614671,18.973828 h 0.529299 v -3.912521 h -0.529299 z m 0,-4.384599 H 38.14397 V 13.68799 h -0.529299 z"
           style="fill:#ffffff"
           id="path313" /><path
           d="m 40.332692,18.973828 h 0.55791 l 1.645119,-3.912521 h -0.536452 l -1.401927,3.290237 -1.373317,-3.290237 h -0.536451 z"
           style="fill:#ffffff"
           id="path315" /><path
           d="m 46.805887,17.192808 c 0,-0.536451 -0.07153,-0.865475 -0.264649,-1.208804 -0.350482,-0.629437 -1.029988,-1.015682 -1.78102,-1.015682 -1.137278,0 -2.024211,0.894086 -2.024211,2.031364 0,1.158735 0.908391,2.067127 2.067127,2.067127 0.85117,0 1.616508,-0.550757 1.902615,-1.380469 h -0.550757 c -0.221733,0.536452 -0.77249,0.894086 -1.366163,0.894086 -0.808254,0 -1.480607,-0.615131 -1.523523,-1.387622 z m -3.526276,-0.47923 c 0.143054,-0.751032 0.736727,-1.258873 1.480607,-1.258873 0.758185,0 1.3304,0.472077 1.51637,1.258873 z"
           style="fill:#ffffff"
           id="path317" /><path
           d="m 49.438075,16.534761 v 0.47923 h 2.954061 c -0.07868,0.343329 -0.257497,0.636589 -0.55791,0.937002 -0.407703,0.407704 -0.965613,0.629437 -1.580745,0.629437 -1.294636,0 -2.317471,-0.987071 -2.317471,-2.245945 0,-1.273178 1.001377,-2.253097 2.310319,-2.253097 0.815406,0 1.502065,0.37194 1.866852,1.015682 h 0.593673 c -0.350482,-0.901239 -1.351858,-1.502065 -2.503441,-1.502065 -1.573592,0 -2.803855,1.194499 -2.803855,2.725175 0,1.552134 1.251721,2.746633 2.875382,2.746633 0.836864,0 1.552133,-0.307566 2.059974,-0.894086 0.429162,-0.493536 0.658048,-1.044293 0.693811,-1.637966 z"
           style="fill:#ffffff"
           id="path319" /></g></g></g></svg>
