<?xml version="1.0" encoding="UTF-8" standalone="no"?>
<svg
   xmlns:dc="http://purl.org/dc/elements/1.1/"
   xmlns:cc="http://creativecommons.org/ns#"
   xmlns:rdf="http://www.w3.org/1999/02/22-rdf-syntax-ns#"
   xmlns:svg="http://www.w3.org/2000/svg"
   xmlns="http://www.w3.org/2000/svg"
   xmlns:sodipodi="http://sodipodi.sourceforge.net/DTD/sodipodi-0.dtd"
   xmlns:inkscape="http://www.inkscape.org/namespaces/inkscape"
   width="512"
   height="512"
   viewBox="0 0 135.46666 135.46667"
   version="1.1"
   id="svg8"
   inkscape:version="1.0.2 (1.0.2+r75+1)"
   sodipodi:docname="logo.svg">
  <defs
     id="defs2" />
  <sodipodi:namedview
     id="base"
     pagecolor="#ffffff"
     bordercolor="#666666"
     borderopacity="1.0"
     inkscape:pageopacity="0.0"
     inkscape:pageshadow="2"
     inkscape:zoom="0.63187464"
     inkscape:cx="417.85984"
     inkscape:cy="236.56317"
     inkscape:document-units="px"
     inkscape:current-layer="layer1"
     inkscape:document-rotation="0"
     showgrid="false"
     units="px"
     inkscape:snap-bbox="true"
     inkscape:bbox-paths="false"
     inkscape:bbox-nodes="false"
     inkscape:snap-bbox-edge-midpoints="false"
     inkscape:snap-bbox-midpoints="false"
     inkscape:snap-page="true"
     inkscape:window-width="1196"
     inkscape:window-height="738"
     inkscape:window-x="0"
     inkscape:window-y="32"
     inkscape:window-maximized="0" />
  <metadata
     id="metadata5">
    <rdf:RDF>
      <cc:Work
         rdf:about="">
        <dc:format>image/svg+xml</dc:format>
        <dc:type
           rdf:resource="http://purl.org/dc/dcmitype/StillImage" />
        <dc:title></dc:title>
      </cc:Work>
    </rdf:RDF>
  </metadata>
  <g
     inkscape:label="Layer 1"
     inkscape:groupmode="layer"
     id="layer1">
    <path
       id="rect835"
       style="fill:#ffff00;fill-opacity:1;stroke:none;stroke-width:0.830125;stop-color:#000000"
       d="M 67.733332,0 V 67.733332 H 135.46667 A 67.733334,67.73333 0 0 0 67.733332,0 Z" />
    <path
       id="path833-6"
       style="fill:#00b0f0;fill-opacity:1;stroke:none;stroke-width:5.24772;stop-color:#000000"
       d="M 256 0 A 255.99999 255.99999 0 0 0 0 256 A 255.99999 255.99999 0 0 0 256 512 A 255.99999 255.99999 0 0 0 512 256 L 256 256 L 256 0 z M 512 256 A 255.99999 255.99999 0 0 0 511.99609 254.6543 A 256.00001 255.99999 0 0 1 512 256 z M 263.91016 0.12304688 A 256.00001 255.99999 0 0 1 265.0625 0.16210938 A 255.99999 255.99999 0 0 0 263.91016 0.12304688 z M 276 0.78320312 A 256.00001 255.99999 0 0 1 276.91797 0.85742188 A 255.99999 255.99999 0 0 0 276 0.78320312 z M 282.69922 1.3964844 A 256.00001 255.99999 0 0 1 283.84766 1.5195312 A 255.99999 255.99999 0 0 0 282.69922 1.3964844 z M 285.37305 1.6914062 A 256.00001 255.99999 0 0 1 288.04492 2.0136719 A 255.99999 255.99999 0 0 0 285.37305 1.6914062 z M 292.04492 2.5507812 A 256.00001 255.99999 0 0 1 293.37695 2.7441406 A 255.99999 255.99999 0 0 0 292.04492 2.5507812 z M 294.70703 2.9433594 A 256.00001 255.99999 0 0 1 295.74414 3.1054688 A 255.99999 255.99999 0 0 0 294.70703 2.9433594 z M 298.69336 3.5859375 A 256.00001 255.99999 0 0 1 300.01758 3.8125 A 255.99999 255.99999 0 0 0 298.69336 3.5859375 z M 310.58008 5.8867188 A 256.00001 255.99999 0 0 1 311.7793 6.1503906 A 255.99999 255.99999 0 0 0 310.58008 5.8867188 z M 332.67969 11.753906 A 256.00001 255.99999 0 0 1 333.96094 12.160156 A 255.99999 255.99999 0 0 0 332.67969 11.753906 z M 346.66211 16.591797 A 256.00001 255.99999 0 0 1 347.91992 17.072266 A 255.99999 255.99999 0 0 0 346.66211 16.591797 z M 347.91992 17.072266 A 256.00001 255.99999 0 0 1 349.1543 17.550781 A 255.99999 255.99999 0 0 0 347.91992 17.072266 z M 372.48047 28.035156 A 256.00001 255.99999 0 0 1 373.43555 28.525391 A 255.99999 255.99999 0 0 0 372.48047 28.035156 z M 378.42969 31.173828 A 256.00001 255.99999 0 0 1 379.60938 31.820312 A 255.99999 255.99999 0 0 0 378.42969 31.173828 z M 381.95898 33.132812 A 256.00001 255.99999 0 0 1 383.11523 33.789062 A 255.99999 255.99999 0 0 0 381.95898 33.132812 z M 384.29492 34.46875 A 256.00001 255.99999 0 0 1 386.18164 35.572266 A 255.99999 255.99999 0 0 0 384.29492 34.46875 z M 406.83008 49.152344 A 256.00001 255.99999 0 0 1 407.61523 49.726562 A 255.99999 255.99999 0 0 0 406.83008 49.152344 z M 415.39062 55.673828 A 256.00001 255.99999 0 0 1 416.07227 56.21875 A 255.99999 255.99999 0 0 0 415.39062 55.673828 z M 428.69531 67.023438 A 256.00001 255.99999 0 0 1 429.68555 67.933594 A 255.99999 255.99999 0 0 0 428.69531 67.023438 z M 440.26172 78.283203 A 256.00001 255.99999 0 0 1 441.02734 79.080078 A 255.99999 255.99999 0 0 0 440.26172 78.283203 z M 445.77344 84.181641 A 256.00001 255.99999 0 0 1 446.33984 84.810547 A 255.99999 255.99999 0 0 0 445.77344 84.181641 z M 450.22266 89.226562 A 256.00001 255.99999 0 0 1 450.79492 89.896484 A 255.99999 255.99999 0 0 0 450.22266 89.226562 z M 458.71484 99.660156 A 256.00001 255.99999 0 0 1 459.27734 100.39062 A 255.99999 255.99999 0 0 0 458.71484 99.660156 z M 465.10742 108.31836 A 256.00001 255.99999 0 0 1 465.88086 109.41992 A 255.99999 255.99999 0 0 0 465.10742 108.31836 z M 466.64844 110.52539 A 256.00001 255.99999 0 0 1 467.41016 111.63281 A 255.99999 255.99999 0 0 0 466.64844 110.52539 z M 476.08789 125.24414 A 256.00001 255.99999 0 0 1 476.42773 125.81836 A 255.99999 255.99999 0 0 0 476.08789 125.24414 z M 486.87695 145.4043 A 256.00001 255.99999 0 0 1 488.02734 147.83789 A 255.99999 255.99999 0 0 0 486.87695 145.4043 z M 488.02734 147.83789 A 256.00001 255.99999 0 0 1 488.5918 149.05859 A 255.99999 255.99999 0 0 0 488.02734 147.83789 z M 497.20703 170.23828 A 256.00001 255.99999 0 0 1 497.53516 171.16797 A 255.99999 255.99999 0 0 0 497.20703 170.23828 z M 499.37695 176.60547 A 256.00001 255.99999 0 0 1 499.66211 177.48828 A 255.99999 255.99999 0 0 0 499.37695 176.60547 z M 501.37891 183.02734 A 256.00001 255.99999 0 0 1 501.68945 184.07812 A 255.99999 255.99999 0 0 0 501.37891 183.02734 z M 504.87305 196.01758 A 256.00001 255.99999 0 0 1 505.11523 197.03516 A 255.99999 255.99999 0 0 0 504.87305 196.01758 z M 506.36328 202.57812 A 256.00001 255.99999 0 0 1 506.64062 203.89453 A 255.99999 255.99999 0 0 0 506.36328 202.57812 z M 508.60938 214.47656 A 256.00001 255.99999 0 0 1 508.82422 215.80469 A 255.99999 255.99999 0 0 0 508.60938 214.47656 z M 510.97852 233.1582 A 256.00001 255.99999 0 0 1 511.08984 234.42773 A 255.99999 255.99999 0 0 0 510.97852 233.1582 z M 511.40234 238.52344 A 256.00001 255.99999 0 0 1 511.57227 241.20898 A 255.99999 255.99999 0 0 0 511.40234 238.52344 z M 511.77344 245.24023 A 256.00001 255.99999 0 0 1 511.82031 246.45117 A 255.99999 255.99999 0 0 0 511.77344 245.24023 z "
       transform="scale(0.26458333)" />
  </g>
</svg>
