<?xml version="1.0" encoding="UTF-8" standalone="no"?>
<svg
   width="512"
   height="512"
   viewBox="0 0 135.46666 135.46667"
   version="1.1"
   id="svg8"
   inkscape:version="1.2.2 (b0a8486541, 2022-12-01)"
   sodipodi:docname="icon.svg"
   xmlns:inkscape="http://www.inkscape.org/namespaces/inkscape"
   xmlns:sodipodi="http://sodipodi.sourceforge.net/DTD/sodipodi-0.dtd"
   xmlns="http://www.w3.org/2000/svg"
   xmlns:svg="http://www.w3.org/2000/svg"
   xmlns:rdf="http://www.w3.org/1999/02/22-rdf-syntax-ns#"
   xmlns:cc="http://creativecommons.org/ns#"
   xmlns:dc="http://purl.org/dc/elements/1.1/">
  <defs
     id="defs2" />
  <sodipodi:namedview
     id="base"
     pagecolor="#ffffff"
     bordercolor="#666666"
     borderopacity="1.0"
     inkscape:pageopacity="0.0"
     inkscape:pageshadow="2"
     inkscape:zoom="0.17144639"
     inkscape:cx="1539.8399"
     inkscape:cy="478.28362"
     inkscape:document-units="px"
     inkscape:current-layer="layer1"
     inkscape:document-rotation="0"
     showgrid="false"
     units="px"
     inkscape:snap-page="true"
     inkscape:window-width="1920"
     inkscape:window-height="1026"
     inkscape:window-x="0"
     inkscape:window-y="32"
     inkscape:window-maximized="1"
     inkscape:showpageshadow="0"
     inkscape:pagecheckerboard="1"
     inkscape:deskcolor="#d1d1d1" />
  <metadata
     id="metadata5">
    <rdf:RDF>
      <cc:Work
         rdf:about="">
        <dc:format>image/svg+xml</dc:format>
        <dc:type
           rdf:resource="http://purl.org/dc/dcmitype/StillImage" />
        <dc:title />
      </cc:Work>
    </rdf:RDF>
  </metadata>
  <g
     inkscape:label="Layer 1"
     inkscape:groupmode="layer"
     id="layer1">
    <rect
       style="fill:#141414;fill-opacity:1;stroke-width:1.7174;stop-color:#000000"
       id="rect833"
       width="135.46666"
       height="135.46666"
       x="0"
       y="0" />
    <g
       id="g1634">
      <g
         aria-label="$"
         id="text458"
         style="font-size:10.5833px;line-height:1.25;font-family:'URW Gothic';-inkscape-font-specification:'URW Gothic';letter-spacing:0px;word-spacing:0px;stroke-width:0.264583"
         transform="matrix(3.917287,0,0,3.917287,101.96547,-12.669541)">
        <path
           d="m -19.112747,15.013869 v 1.188554 h -0.707965 v -1.142045 q -1.178219,0 -1.886184,-0.361734 v -0.888832 q 1.012855,0.475422 1.886184,0.475422 v -2.24275 q -0.997352,-0.330728 -1.400427,-0.749306 -0.397907,-0.423745 -0.397907,-1.136878 0,-0.6769591 0.475422,-1.121375 0.475421,-0.4444159 1.322912,-0.5477684 V 7.5569838 h 0.707965 v 0.9095023 q 0.966346,0.046509 1.736323,0.4030749 l -0.341064,0.7493059 Q -18.440956,9.298474 -19.112747,9.2467977 v 2.1807383 q 1.028358,0.351399 1.441768,0.769977 0.418578,0.41341 0.418578,1.085201 0,1.446936 -1.860346,1.731155 z m -0.707965,-3.839546 V 9.2674682 q -0.888832,0.1498612 -0.888832,0.8991668 0,0.403075 0.206705,0.625283 0.211873,0.222208 0.682127,0.382405 z m 0.707965,1.13171 v 1.927525 q 0.950843,-0.144694 0.950843,-0.950844 0,-0.656288 -0.950843,-0.976681 z"
           style="font-family:'Noto Mono';-inkscape-font-specification:'Noto Mono';fill:#ffffff"
           id="path1015" />
      </g>
      <rect
         style="fill:#ffffff;fill-opacity:1;stroke-width:2.30534;stop-color:#000000"
         id="rect1070"
         width="18.902325"
         height="33.866665"
         x="40.683651"
         y="16.933334"
         ry="4.2333331" />
    </g>
  </g>
</svg>
