<?xml version="1.0" encoding="UTF-8" standalone="no"?>
<svg
   width="512"
   height="512"
   viewBox="0 0 135.46666 135.46667"
   version="1.1"
   id="svg8"
   inkscape:version="1.2.2 (b0a8486541, 2022-12-01)"
   sodipodi:docname="icon.svg"
   xml:space="preserve"
   xmlns:inkscape="http://www.inkscape.org/namespaces/inkscape"
   xmlns:sodipodi="http://sodipodi.sourceforge.net/DTD/sodipodi-0.dtd"
   xmlns="http://www.w3.org/2000/svg"
   xmlns:svg="http://www.w3.org/2000/svg"
   xmlns:rdf="http://www.w3.org/1999/02/22-rdf-syntax-ns#"
   xmlns:cc="http://creativecommons.org/ns#"
   xmlns:dc="http://purl.org/dc/elements/1.1/"><defs
     id="defs2"><clipPath
       clipPathUnits="userSpaceOnUse"
       id="clipPath3044"><rect
         style="opacity:1;fill:#062c13;fill-opacity:1;stroke:none;stroke-width:0.2;stroke-opacity:1;stop-color:#000000"
         id="rect3046"
         width="81.548645"
         height="43.672699"
         x="165.29971"
         y="31.99287"
         ry="0.43471044" /></clipPath></defs><sodipodi:namedview
     id="base"
     pagecolor="#ffffff"
     bordercolor="#666666"
     borderopacity="1.0"
     inkscape:pageopacity="0.0"
     inkscape:pageshadow="2"
     inkscape:zoom="0.48492362"
     inkscape:cx="435.12007"
     inkscape:cy="187.65842"
     inkscape:document-units="px"
     inkscape:current-layer="layer1"
     inkscape:document-rotation="0"
     showgrid="false"
     units="px"
     inkscape:snap-page="true"
     inkscape:window-width="1920"
     inkscape:window-height="1026"
     inkscape:window-x="0"
     inkscape:window-y="32"
     inkscape:window-maximized="1"
     inkscape:showpageshadow="0"
     inkscape:pagecheckerboard="1"
     inkscape:deskcolor="#d1d1d1" /><metadata
     id="metadata5"><rdf:RDF><cc:Work
         rdf:about=""><dc:format>image/svg+xml</dc:format><dc:type
           rdf:resource="http://purl.org/dc/dcmitype/StillImage" /><dc:title /></cc:Work></rdf:RDF></metadata><g
     inkscape:label="Layer 1"
     inkscape:groupmode="layer"
     id="layer1"><rect
       style="fill:#c1efd0;fill-opacity:1;stroke-width:1.7174;stop-color:#000000"
       id="rect833"
       width="135.46666"
       height="135.46666"
       x="0"
       y="0" /><g
       id="g5460"
       transform="matrix(0.90172628,0,0,0.90172628,13.312812,13.312812)"><path
         id="rect833-9"
         style="fill:#5c913b;fill-opacity:1;stroke-width:1.7174;stop-color:#000000"
         d="M 17.910534,47.967097 C 13.573891,48.170928 11.361718,52.018919 8.59069,62.360534 3.2226504,82.394332 21.467026,94.440336 41.500825,99.808377 61.534626,105.17642 59.745517,111.85418 67.733332,135.46666 H 135.46666 V 102.0594 C 129.54361,95.865624 125.05086,88.085829 119.01651,77.63402 97.017875,39.531264 72.27114,65.108789 58.915266,61.530094 35.125138,55.155548 24.248705,47.669192 17.910534,47.967097 Z" /><path
         fill="#ffffff"
         d="m 45.079729,86.452283 c -2.597714,-0.696055 -4.888585,-8.467287 -4.888585,-8.467287 l 13.355868,3.578694 c 0,0 -5.869569,5.584648 -8.467283,4.888593 z m -14.19509,-0.446746 c -2.597714,-0.696056 -4.049382,-11.59924 -4.049382,-11.59924 l 13.355887,3.578699 c 0,0 -6.708774,8.716601 -9.306505,8.020541 z M 16.578626,85.97283 C 13.980912,85.276774 13.479388,70.827603 13.479388,70.827603 l 13.355869,3.578694 c 0,0 -7.658917,12.262588 -10.256631,11.566533 z"
         id="path2888"
         style="stroke-width:6.91352" /><path
         id="path2996"
         style="fill:#292f33;fill-opacity:1;stroke-width:2.74484"
         d="m 82.030122,58.933591 c -5.217206,-1.390338 -9.14149,-1.952887 -9.763411,-1.593828 -0.500177,0.286539 -0.919593,1.855796 -0.631755,2.350644 0.287962,0.494881 1.933384,2.198103 2.011065,3.477764 0.07768,1.279659 -1.359638,6.801611 0.469725,9.39176 1.887239,2.671016 8.926412,5.90607 10.915301,5.504089 4.448192,-0.905242 6.624549,-6.433759 8.060869,-9.015575 0.812246,-1.461771 5.698435,-0.822819 5.698435,-0.822819 l 11.900629,1.674806 c 0.74165,-0.353975 1.48397,-0.601384 1.73859,-0.748786 0.47977,-0.277762 0.885,-1.788322 0.60782,-2.268426 -0.34692,-0.598537 -0.74462,0.335692 -5.77515,-1.020508 C 104.24396,65.04883 100.69216,64.25873 96.979082,63.686468 96.233941,63.57164 95.645024,63.549847 94.95673,63.502123 93.980618,63.059993 93.347159,62.681978 92.384769,62.309385 88.756938,60.899344 85.160558,59.767744 82.030228,58.93362 Z"
         sodipodi:nodetypes="cccscccccsccscccc" /><path
         fill="#66757f"
         d="m 75.900811,45.302888 c 0,0 8.137363,-18.55429 17.768409,-14.741365 7.39664,2.927695 10.14764,4.640871 16.968,4.772522 4.51238,0.08628 8.17344,4.836352 9.06029,12.628485 0.56919,4.969875 0.30692,9.49566 0.30692,9.49566 0,0 8.7832,1.456601 8.04369,6.189961 -0.73734,4.733936 -12.20957,7.714275 -37.280134,0.996639 -14.050677,-3.76715 -27.17481,-12.77438 -26.714785,-17.247177 0.460044,-4.472796 11.84761,-2.094725 11.84761,-2.094725 z"
         id="path2998"
         style="stroke-width:2.2501" /><path
         fill="#292f33"
         d="m 182.70611,51.061599 c 0,0 -0.50514,2.065444 -0.75958,3.500404 -0.25444,1.436831 0.42282,2.424652 5.06072,3.412473 6.14956,1.309612 19.97905,1.294645 28.17161,-0.716544 3.29087,-0.808218 5.39934,-1.347029 5.14677,-2.961593 -0.31243,-1.998093 -0.36669,-1.994351 -1.01214,-4.130889 0,0 -2.76328,0.939179 -6.41148,1.796039 -4.97653,1.167425 -18.64139,1.704365 -25.22125,0.269405 -3.50602,-0.767058 -4.97465,-1.169295 -4.97465,-1.169295 z m -0.25444,26.104297 c -0.66229,0.271277 5.46482,2.578064 13.99413,2.727734 8.92594,0.157153 11.66303,0.729641 9.62752,2.729604 -2.14402,2.104733 -1.59399,5.414308 -1.44245,6.394646 0.15154,0.980338 3.82968,3.584594 4.13089,4.789436 0.30121,1.206714 -2.2993,11.152274 -2.2993,11.152274 l -16.33086,-0.47146 c -4.79879,-16.546002 -5.39372,-15.904293 -7.67993,-25.45136 -0.45088,-1.885841 0,-1.870874 0,-1.870874 z"
         id="path3000"
         style="stroke-width:1.87087"
         clip-path="url(#clipPath3044)"
         transform="matrix(1.1617211,0.31128223,-0.31128223,1.1617211,-119.15281,-73.440046)" /></g></g></svg>
