<?xml version="1.0" encoding="UTF-8" standalone="no"?>
<!-- Created with Inkscape (http://www.inkscape.org/) -->

<svg
   width="256"
   height="96"
   viewBox="0 0 67.733332 25.399999"
   version="1.1"
   id="svg5"
   xml:space="preserve"
   inkscape:version="1.2.2 (b0a8486541, 2022-12-01)"
   sodipodi:docname="10years_zh.svg"
   xmlns:inkscape="http://www.inkscape.org/namespaces/inkscape"
   xmlns:sodipodi="http://sodipodi.sourceforge.net/DTD/sodipodi-0.dtd"
   xmlns="http://www.w3.org/2000/svg"
   xmlns:svg="http://www.w3.org/2000/svg"><sodipodi:namedview
     id="namedview7"
     pagecolor="#505050"
     bordercolor="#ffffff"
     borderopacity="1"
     inkscape:showpageshadow="0"
     inkscape:pageopacity="0"
     inkscape:pagecheckerboard="1"
     inkscape:deskcolor="#505050"
     inkscape:document-units="px"
     showgrid="false"
     inkscape:zoom="1.6106622"
     inkscape:cx="99.338024"
     inkscape:cy="67.674029"
     inkscape:window-width="1920"
     inkscape:window-height="1026"
     inkscape:window-x="0"
     inkscape:window-y="32"
     inkscape:window-maximized="1"
     inkscape:current-layer="layer1" /><defs
     id="defs2" /><g
     inkscape:label="Layer 1"
     inkscape:groupmode="layer"
     id="layer1"><rect
       style="fill:#000000;stroke-width:1.26862;stop-color:#000000"
       id="rect234"
       width="67.73333"
       height="25.4"
       x="8.8817842e-16"
       y="0"
       ry="8.4666662" /><g
       id="g827"
       transform="translate(0.37569487)"><g
         id="g1434"
         transform="matrix(1.9727918,0,0,1.9727918,39.17987,44.133268)"><path
           d="m -5.9697024,-12.005814 h 1.4075789 v -7.821058 h -2.3918258 v 1.322912 h 0.9842469 z"
           style="font-weight:bold;font-size:10.5833px;line-height:1.25;font-family:'URW Gothic';-inkscape-font-specification:'URW Gothic';letter-spacing:0px;word-spacing:0px;fill:#00b0f0;fill-opacity:1;stroke-width:0.264583"
           id="path512" /><g
           id="g598"><path
             id="rect835"
             style="fill:#ffff00;fill-opacity:1;stroke:none;stroke-width:0.0494061;stop-color:#000000"
             d="m 0.71571857,-19.964672 v 1.407666 a 2.6236734,2.6236734 0 0 1 2.62361243,2.623612 h 1.4076659 a 4.0312523,4.0312521 0 0 0 -4.03127833,-4.031278 z" /><path
             id="path833-6"
             style="fill:#00b0f0;fill-opacity:1;stroke:none;stroke-width:0.0826363;stop-color:#000000"
             d="m 0.71571857,-19.964672 a 4.0312523,4.0312523 0 0 0 -4.03127837,4.031278 4.0312523,4.0312523 0 0 0 4.03127837,4.031278 4.0312523,4.0312523 0 0 0 4.03127833,-4.031278 H 3.339331 a 2.6236734,2.6236734 0 0 1 -2.62361243,2.623612 2.6236734,2.6236734 0 0 1 -2.62361237,-2.623612 2.6236734,2.6236734 0 0 1 2.62361237,-2.623612 z m 0.12454019,0.0021 a 4.0312526,4.0312523 0 0 1 0.0186035,5.17e-4 4.0312523,4.0312523 0 0 0 -0.0186035,-5.17e-4 z m 0.19068604,0.01034 a 4.0312526,4.0312523 0 0 1 0.014469,0.0015 4.0312523,4.0312523 0 0 0 -0.014469,-0.0015 z m 0.1054199,0.0098 a 4.0312526,4.0312523 0 0 1 0.018087,0.0021 4.0312523,4.0312523 0 0 0 -0.018087,-0.0021 z m 0.041858,0.0046 a 4.0312526,4.0312523 0 0 1 0.042375,0.0052 4.0312523,4.0312523 0 0 0 -0.042375,-0.0052 z m 0.1054199,0.01344 a 4.0312526,4.0312523 0 0 1 0.020671,0.0031 4.0312523,4.0312523 0 0 0 -0.020671,-0.0031 z m 0.041858,0.0062 a 4.0312526,4.0312523 0 0 1 0.01602,0.0026 4.0312523,4.0312523 0 0 0 -0.01602,-0.0026 z m 0.062528,0.01034 a 4.0312526,4.0312523 0 0 1 0.021187,0.0036 4.0312523,4.0312523 0 0 0 -0.021187,-0.0036 z m 0.1875855,0.03617 a 4.0312526,4.0312523 0 0 1 0.018603,0.0041 4.0312523,4.0312523 0 0 0 -0.018603,-0.0041 z m 0.3477824,0.0925 a 4.0312526,4.0312523 0 0 1 0.020154,0.0062 4.0312523,4.0312523 0 0 0 -0.020154,-0.0062 z m 0.6268351,0.256315 a 4.0312526,4.0312523 0 0 1 0.014986,0.0078 4.0312523,4.0312523 0 0 0 -0.014986,-0.0078 z m 0.093534,0.04909 a 4.0312526,4.0312523 0 0 1 0.018604,0.01033 4.0312523,4.0312523 0 0 0 -0.018604,-0.01033 z m 0.055811,0.03101 a 4.0312526,4.0312523 0 0 1 0.018087,0.01034 4.0312523,4.0312523 0 0 0 -0.018087,-0.01034 z m 0.03669,0.02119 a 4.0312526,4.0312523 0 0 1 0.029456,0.01705 4.0312523,4.0312523 0 0 0 -0.029456,-0.01705 z m 0.3550171,0.230994 a 4.0312526,4.0312523 0 0 1 0.011886,0.0093 4.0312523,4.0312523 0 0 0 -0.011886,-0.0093 z m 0.1343587,0.102836 a 4.0312526,4.0312523 0 0 1 0.010852,0.0088 4.0312523,4.0312523 0 0 0 -0.010852,-0.0088 z m 0.2098063,0.1788 a 4.0312526,4.0312523 0 0 1 0.015503,0.01447 4.0312523,4.0312523 0 0 0 -0.015503,-0.01447 z m 0.1819011,0.17725 a 4.0312526,4.0312523 0 0 1 0.012402,0.0124 4.0312523,4.0312523 0 0 0 -0.012402,-0.0124 z m 0.086816,0.09302 a 4.0312526,4.0312523 0 0 1 0.0093,0.0098 4.0312523,4.0312523 0 0 0 -0.0093,-0.0098 z m 0.07028,0.07906 a 4.0312526,4.0312523 0 0 1 0.00879,0.01085 4.0312523,4.0312523 0 0 0 -0.00879,-0.01085 z m 0.133842,0.164331 a 4.0312526,4.0312523 0 0 1 0.00879,0.01189 4.0312523,4.0312523 0 0 0 -0.00879,-0.01189 z M 4.00854,-18.25886 a 4.0312526,4.0312523 0 0 1 0.012402,0.01757 4.0312523,4.0312523 0 0 0 -0.012402,-0.01757 z m 0.024288,0.03462 a 4.0312526,4.0312523 0 0 1 0.012402,0.01757 4.0312523,4.0312523 0 0 0 -0.012402,-0.01757 z m 0.1488281,0.232027 a 4.0312526,4.0312523 0 0 1 0.00517,0.0088 4.0312523,4.0312523 0 0 0 -0.00517,-0.0088 z m 0.3327962,0.708484 a 4.0312526,4.0312523 0 0 1 0.00517,0.01447 4.0312523,4.0312523 0 0 0 -0.00517,-0.01447 z m 0.034106,0.100252 a 4.0312526,4.0312523 0 0 1 0.00413,0.01395 4.0312523,4.0312523 0 0 0 -0.00413,-0.01395 z m 0.031523,0.101286 a 4.0312526,4.0312523 0 0 1 0.00465,0.01654 4.0312523,4.0312523 0 0 0 -0.00465,-0.01654 z m 0.054777,0.204639 a 4.0312526,4.0312523 0 0 1 0.00413,0.01602 4.0312523,4.0312523 0 0 0 -0.00413,-0.01602 z m 0.023771,0.103353 a 4.0312526,4.0312523 0 0 1 0.00413,0.02067 4.0312523,4.0312523 0 0 0 -0.00413,-0.02067 z m 0.03514,0.187068 a 4.0312526,4.0312523 0 0 1 0.00362,0.02119 4.0312523,4.0312523 0 0 0 -0.00362,-0.02119 z m 0.037207,0.294039 a 4.0312526,4.0312523 0 0 1 0.00207,0.02015 4.0312523,4.0312523 0 0 0 -0.00207,-0.02015 z m 0.00672,0.08475 a 4.0312526,4.0312523 0 0 1 0.00258,0.04237 4.0312523,4.0312523 0 0 0 -0.00258,-0.04237 z m 0.00568,0.105937 a 4.0312526,4.0312523 0 0 1 0.00103,0.0186 4.0312523,4.0312523 0 0 0 -0.00103,-0.0186 z" /></g></g><text
         xml:space="preserve"
         style="font-size:7.15269px;line-height:1.25;font-family:'URW Gothic';-inkscape-font-specification:'URW Gothic';letter-spacing:0px;word-spacing:0px;stroke-width:0.178818"
         x="6.4415846"
         y="15.36225"
         id="text1438"><tspan
           sodipodi:role="line"
           style="fill:#ffffff;fill-opacity:1;stroke-width:0.178818"
           x="6.4415846"
           y="15.36225"
           id="tspan1440">力格</tspan></text><text
         xml:space="preserve"
         style="font-size:7.15269px;line-height:1.25;font-family:'URW Gothic';-inkscape-font-specification:'URW Gothic';letter-spacing:0px;word-spacing:0px;stroke-width:0.178818"
         x="53.058643"
         y="15.328612"
         id="text1438-3"><tspan
           sodipodi:role="line"
           style="fill:#ffffff;fill-opacity:1;stroke-width:0.178818"
           x="53.058643"
           y="15.328612"
           id="tspan1440-6">年</tspan></text></g><text
       xml:space="preserve"
       style="font-size:10.5833px;line-height:1.25;font-family:'URW Gothic';-inkscape-font-specification:'URW Gothic';letter-spacing:0px;word-spacing:0px;stroke-width:0.264583"
       x="69.018387"
       y="-18.399002"
       id="text740"><tspan
         sodipodi:role="line"
         id="tspan738"
         style="stroke-width:0.264583"
         x="69.018387"
         y="-18.399002"></tspan></text></g></svg>
