<?xml version="1.0" encoding="UTF-8" standalone="no"?>
<!-- Created with Inkscape (http://www.inkscape.org/) -->

<svg
   width="512"
   height="512"
   viewBox="0 0 135.46667 135.46667"
   version="1.1"
   id="svg2043"
   xml:space="preserve"
   inkscape:version="1.2.2 (b0a8486541, 2022-12-01)"
   sodipodi:docname="gator.svg"
   xmlns:inkscape="http://www.inkscape.org/namespaces/inkscape"
   xmlns:sodipodi="http://sodipodi.sourceforge.net/DTD/sodipodi-0.dtd"
   xmlns="http://www.w3.org/2000/svg"
   xmlns:svg="http://www.w3.org/2000/svg"><sodipodi:namedview
     id="namedview2045"
     pagecolor="#505050"
     bordercolor="#ffffff"
     borderopacity="1"
     inkscape:showpageshadow="0"
     inkscape:pageopacity="0"
     inkscape:pagecheckerboard="1"
     inkscape:deskcolor="#505050"
     inkscape:document-units="px"
     showgrid="false"
     inkscape:zoom="1.1389101"
     inkscape:cx="348.57886"
     inkscape:cy="182.63074"
     inkscape:window-width="1920"
     inkscape:window-height="1026"
     inkscape:window-x="0"
     inkscape:window-y="32"
     inkscape:window-maximized="1"
     inkscape:current-layer="layer1" /><defs
     id="defs2040"><inkscape:path-effect
       effect="fillet_chamfer"
       id="path-effect2766"
       is_visible="true"
       lpeversion="1"
       nodesatellites_param="F,0,0,1,0,1,0,1 @ F,0,0,1,0,1,0,1 @ F,0,0,1,0,1,0,1 @ F,0,0,1,0,1,0,1 @ F,0,0,1,0,1,0,1 @ F,0,0,1,0,1,0,1"
       unit="px"
       method="auto"
       mode="F"
       radius="1"
       chamfer_steps="1"
       flexible="false"
       use_knot_distance="true"
       apply_no_radius="true"
       apply_with_radius="true"
       only_selected="false"
       hide_knots="false" /><inkscape:path-effect
       effect="fillet_chamfer"
       id="path-effect2764"
       is_visible="true"
       lpeversion="1"
       nodesatellites_param="F,0,0,1,0,1.9461719,0,1 @ F,0,0,1,0,2,0,1 @ F,0,0,1,0,2,0,1 @ F,0,0,1,0,2,0,1 @ F,0,0,1,0,2,0,1 @ F,0,0,1,0,2,0,1 @ F,0,0,1,0,2,0,1"
       unit="px"
       method="auto"
       mode="F"
       radius="2"
       chamfer_steps="1"
       flexible="false"
       use_knot_distance="true"
       apply_no_radius="true"
       apply_with_radius="true"
       only_selected="false"
       hide_knots="false" /><inkscape:path-effect
       effect="fillet_chamfer"
       id="path-effect2738"
       is_visible="true"
       lpeversion="1"
       nodesatellites_param="F,0,0,1,0,0.5,0,1 @ F,0,0,1,0,0.5,0,1 @ F,0,0,1,0,0.5,0,1 @ F,0,0,1,0,0.5,0,1"
       unit="px"
       method="auto"
       mode="F"
       radius="0.5"
       chamfer_steps="1"
       flexible="false"
       use_knot_distance="true"
       apply_no_radius="true"
       apply_with_radius="true"
       only_selected="false"
       hide_knots="false" /><inkscape:path-effect
       effect="fillet_chamfer"
       id="path-effect2681"
       is_visible="true"
       lpeversion="1"
       nodesatellites_param="F,0,0,1,0,1,0,1 @ F,0,0,1,0,1,0,1 @ F,0,0,1,0,1,0,1 @ F,0,0,1,0,1,0,1 @ F,0,0,1,0,1,0,1 @ F,0,0,1,0,1,0,1 @ F,0,0,1,0,1,0,1 @ F,0,0,1,0,1,0,1 @ F,0,0,1,0,1,0,1 @ F,0,0,1,0,1,0,1"
       unit="px"
       method="auto"
       mode="F"
       radius="1"
       chamfer_steps="1"
       flexible="false"
       use_knot_distance="true"
       apply_no_radius="true"
       apply_with_radius="true"
       only_selected="false"
       hide_knots="false" /><inkscape:path-effect
       effect="fillet_chamfer"
       id="path-effect2679"
       is_visible="true"
       lpeversion="1"
       nodesatellites_param="F,0,0,1,0,0,0,1 @ F,0,0,1,0,0,0,1 @ F,0,0,1,0,0,0,1 @ F,0,0,1,0,0,0,1 @ F,0,0,1,0,0,0,1 @ F,0,0,1,0,0,0,1 @ F,0,0,1,0,0,0,1"
       unit="px"
       method="auto"
       mode="F"
       radius="0"
       chamfer_steps="1"
       flexible="false"
       use_knot_distance="true"
       apply_no_radius="true"
       apply_with_radius="true"
       only_selected="false"
       hide_knots="false" /><inkscape:path-effect
       effect="fillet_chamfer"
       id="path-effect2677"
       is_visible="true"
       lpeversion="1"
       nodesatellites_param="F,0,0,1,0,0,0,1 @ F,0,0,1,0,0,0,1 @ F,0,0,1,0,0,0,1 @ F,0,0,1,0,0,0,1 @ F,0,0,1,0,0,0,1 @ F,0,0,1,0,0,0,1 @ F,0,0,1,0,0,0,1 @ F,0,0,1,0,0,0,1 @ F,0,0,1,0,0,0,1 @ F,0,0,1,0,0,0,1"
       unit="px"
       method="auto"
       mode="F"
       radius="0"
       chamfer_steps="1"
       flexible="false"
       use_knot_distance="true"
       apply_no_radius="true"
       apply_with_radius="true"
       only_selected="false"
       hide_knots="false" /><inkscape:path-effect
       effect="fillet_chamfer"
       id="path-effect2673"
       is_visible="true"
       lpeversion="1"
       nodesatellites_param="F,0,0,1,0,0,0,1 @ F,0,0,1,0,0,0,1 @ F,0,0,1,0,0,0,1 @ F,0,0,1,0,0,0,1 @ F,0,0,1,0,0,0,1 @ F,0,0,1,0,0,0,1 @ F,0,0,1,0,0,0,1"
       unit="px"
       method="auto"
       mode="F"
       radius="0"
       chamfer_steps="1"
       flexible="false"
       use_knot_distance="true"
       apply_no_radius="true"
       apply_with_radius="true"
       only_selected="false"
       hide_knots="false" /><inkscape:path-effect
       effect="fillet_chamfer"
       id="path-effect2766-3"
       is_visible="true"
       lpeversion="1"
       nodesatellites_param="F,0,0,1,0,1,0,1 @ F,0,0,1,0,1,0,1 @ F,0,0,1,0,1,0,1 @ F,0,0,1,0,1,0,1 @ F,0,0,1,0,1,0,1 @ F,0,0,1,0,1,0,1"
       unit="px"
       method="auto"
       mode="F"
       radius="1"
       chamfer_steps="1"
       flexible="false"
       use_knot_distance="true"
       apply_no_radius="true"
       apply_with_radius="true"
       only_selected="false"
       hide_knots="false" /><clipPath
       clipPathUnits="userSpaceOnUse"
       id="clipPath2974"><rect
         style="opacity:1;fill:#062c13;fill-opacity:1;stroke:none;stroke-width:0.257956;stroke-opacity:1;stop-color:#000000"
         id="rect2976"
         width="58.233143"
         height="32.203682"
         x="157.84616"
         y="6.5290971"
         ry="0.43471044" /></clipPath><clipPath
       clipPathUnits="userSpaceOnUse"
       id="clipPath3044"><rect
         style="opacity:1;fill:#062c13;fill-opacity:1;stroke:none;stroke-width:0.2;stroke-opacity:1;stop-color:#000000"
         id="rect3046"
         width="81.548645"
         height="43.672699"
         x="165.29971"
         y="31.99287"
         ry="0.43471044" /></clipPath></defs><g
     inkscape:label="Layer 1"
     inkscape:groupmode="layer"
     id="layer1"><path
       fill="#3e721d"
       d="m 71.467599,97.131884 c 0,3.762966 -6.483585,11.288886 -12.545718,11.288886 -6.058371,0 -6.269097,-5.05366 -6.269097,-11.288886 0,-6.235234 4.914429,-11.288895 10.9728,-11.288895 6.062134,0 7.842015,5.053661 7.842015,11.288895 z m 41.392591,0 c 0,3.762966 -6.48358,11.288886 -12.54572,11.288886 -6.058368,0 -6.269093,-5.05366 -6.269093,-11.288886 0,-6.235234 4.914429,-11.288895 10.972803,-11.288895 6.06212,0 7.84201,5.053661 7.84201,11.288895 z"
       id="path2870"
       style="stroke-width:3.76297" /><path
       fill="#5c913b"
       d="m 135.43797,70.79114 c 0,-22.577778 -11.93611,-34.510134 -22.57778,-45.155556 -3.76296,-3.762963 -5.26438,1.207911 -3.76296,3.762963 1.91158,3.243674 11.28888,30.103704 -7.52593,30.103704 h -7.525923 c -18.814816,0 -23.225008,-4.410193 -33.866667,-15.051853 -16.933333,-16.933333 -26.34074,0 -33.866667,0 -22.5777776,0 -26.34074054,-6.818489 -26.34074054,7.525928 0,11.288888 11.28888854,15.051851 22.57777754,15.051851 11.28889,0 11.28889,3.762963 18.814815,15.051851 4.030133,6.043324 10.671763,12.082877 18.901363,15.635116 0.873007,4.210746 10.438459,14.468586 16.222134,14.468586 6.058369,0 6.269096,-5.05366 6.269096,-11.28888 H 101.5713 c 0.12795,0 0.24836,-0.0376 0.38006,-0.0376 1.09503,0.0189 2.20886,0.0376 3.38291,0.0376 0,3.76296 6.48358,11.28888 12.54571,11.28888 6.05837,0 6.26911,-5.05366 6.26911,-11.28888 0,-1.13642 -0.21449,-2.208865 -0.51554,-3.239916 6.58143,-3.559769 11.80442,-11.025483 11.80442,-26.863794 z"
       id="path2872"
       style="stroke-width:3.76297" /><g
       fill="#77b255"
       id="g2886"
       transform="matrix(3.7629629,0,0,3.7629629,-0.02869754,-23.282934)"><ellipse
         cx="27.5"
         cy="24"
         rx="1.5"
         ry="1"
         id="ellipse2876" /><ellipse
         cx="23.5"
         cy="24"
         rx="1.5"
         ry="1"
         id="ellipse2878" /><ellipse
         cx="19.5"
         cy="24"
         rx="1.5"
         ry="1"
         id="ellipse2880" /><ellipse
         cx="21.5"
         cy="26"
         rx="1.5"
         ry="1"
         id="ellipse2882" /><ellipse
         cx="25.5"
         cy="26"
         rx="1.5"
         ry="1"
         id="ellipse2884" /></g><path
       fill="#ffffff"
       d="m 22.54908,59.502251 c -1.463792,0 -3.762963,-3.762963 -3.762963,-3.762963 h 7.525926 c 0,0 -2.29917,3.762963 -3.762963,3.762963 z m -7.525927,1.764829 c -1.463791,0 -3.762962,-5.527792 -3.762962,-5.527792 h 7.525926 c 0,0 -2.29917,5.527792 -3.762964,5.527792 z m -7.5259247,1.998134 c -1.4637924,0 -3.7629629,-7.525926 -3.7629629,-7.525926 h 7.5259256 c 0,0 -2.2991702,7.525926 -3.7629627,7.525926 z"
       id="path2888"
       style="stroke-width:3.76297" /><path
       id="path2996"
       style="fill:#292f33;fill-opacity:1;stroke-width:1.49399"
       d="m 38.098919,39.829132 c -2.938777,0.004 -5.0812,0.261068 -5.357588,0.537453 -0.222602,0.221108 -0.222045,1.105221 -9.99e-4,1.324836 0.221109,0.219615 1.326119,0.88328 1.54723,1.545112 0.221108,0.661831 0.24334,3.767448 1.569999,4.871498 1.368483,1.138412 5.525023,1.847596 6.51404,1.356076 2.211093,-1.102556 2.576482,-4.315735 2.967907,-5.87545 0.22111,-0.882942 2.880009,-1.235348 2.880009,-1.235348 l 6.492638,-0.795956 c 0.340048,-0.290578 0.695464,-0.525225 0.808563,-0.63859 0.213115,-0.213619 0.213367,-1.064874 0,-1.278239 -0.266708,-0.265806 -0.344189,0.281385 -3.18002,0.277036 -1.701498,-0.0027 -3.680142,0.08226 -5.712889,0.304469 -0.407931,0.0446 -0.720614,0.116105 -1.089205,0.187976 -0.575476,-0.09494 -0.961765,-0.204442 -1.520225,-0.264756 -2.105948,-0.230259 -4.156134,-0.318559 -5.9194,-0.316117 z"
       sodipodi:nodetypes="cccscccccsccscccc" /><path
       fill="#66757f"
       d="m 32.956266,33.526314 c 0,0 1.664385,-10.901156 7.264994,-10.253284 4.301182,0.497234 5.988838,1.010387 9.593162,0.118797 2.384513,-0.590311 4.978453,1.391272 6.542405,5.363012 0.99937,2.532702 1.499048,4.949058 1.499048,4.949058 0,0 4.822914,-0.471515 5.100924,2.121201 0.279235,2.592714 -5.332392,5.775739 -19.459441,5.775739 -7.91776,-0.0012 -16.086581,-2.88787 -16.474817,-5.304225 -0.388235,-2.416357 5.933725,-2.770298 5.933725,-2.770298 z"
       id="path2998"
       style="stroke-width:1.22471" /><path
       fill="#292f33"
       d="m 182.70611,51.061599 c 0,0 -0.50514,2.065444 -0.75958,3.500404 -0.25444,1.436831 0.42282,2.424652 5.06072,3.412473 6.14956,1.309612 19.97905,1.294645 28.17161,-0.716544 3.29087,-0.808218 5.39934,-1.347029 5.14677,-2.961593 -0.31243,-1.998093 -0.36669,-1.994351 -1.01214,-4.130889 0,0 -2.76328,0.939179 -6.41148,1.796039 -4.97653,1.167425 -18.64139,1.704365 -25.22125,0.269405 -3.50602,-0.767058 -4.97465,-1.169295 -4.97465,-1.169295 z m -0.25444,26.104297 c -0.66229,0.271277 5.46482,2.578064 13.99413,2.727734 8.92594,0.157153 11.66303,0.729641 9.62752,2.729604 -2.14402,2.104733 -1.59399,5.414308 -1.44245,6.394646 0.15154,0.980338 3.82968,3.584594 4.13089,4.789436 0.30121,1.206714 -2.2993,11.152274 -2.2993,11.152274 l -16.33086,-0.47146 c -4.79879,-16.546002 -5.39372,-15.904293 -7.67993,-25.45136 -0.45088,-1.885841 0,-1.870874 0,-1.870874 z"
       id="path3000"
       style="stroke-width:1.87087"
       clip-path="url(#clipPath3044)"
       transform="matrix(0.65462011,0,0,0.65462011,-86.319825,-1.4244007)" /></g></svg>
