<?xml version="1.0" encoding="UTF-8" standalone="no"?>
<svg
   xmlns:dc="http://purl.org/dc/elements/1.1/"
   xmlns:cc="http://creativecommons.org/ns#"
   xmlns:rdf="http://www.w3.org/1999/02/22-rdf-syntax-ns#"
   xmlns:svg="http://www.w3.org/2000/svg"
   xmlns="http://www.w3.org/2000/svg"
   xmlns:sodipodi="http://sodipodi.sourceforge.net/DTD/sodipodi-0.dtd"
   xmlns:inkscape="http://www.inkscape.org/namespaces/inkscape"
   width="512"
   height="512"
   viewBox="0 0 135.46666 135.46667"
   version="1.1"
   id="svg8"
   inkscape:version="1.0.2 (1.0.2+r75+1)"
   sodipodi:docname="icon.svg">
  <defs
     id="defs2" />
  <sodipodi:namedview
     id="base"
     pagecolor="#ffffff"
     bordercolor="#666666"
     borderopacity="1.0"
     inkscape:pageopacity="0.0"
     inkscape:pageshadow="2"
     inkscape:zoom="0.48492362"
     inkscape:cx="197.98632"
     inkscape:cy="311.70814"
     inkscape:document-units="px"
     inkscape:current-layer="layer1"
     inkscape:document-rotation="0"
     showgrid="false"
     units="px"
     inkscape:snap-page="true"
     inkscape:window-width="1200"
     inkscape:window-height="742"
     inkscape:window-x="0"
     inkscape:window-y="32"
     inkscape:window-maximized="1" />
  <metadata
     id="metadata5">
    <rdf:RDF>
      <cc:Work
         rdf:about="">
        <dc:format>image/svg+xml</dc:format>
        <dc:type
           rdf:resource="http://purl.org/dc/dcmitype/StillImage" />
        <dc:title></dc:title>
      </cc:Work>
    </rdf:RDF>
  </metadata>
  <g
     inkscape:label="Layer 1"
     inkscape:groupmode="layer"
     id="layer1">
    <rect
       style="fill:#558bf6;fill-opacity:1;stroke-width:1.7174;stop-color:#000000"
       id="rect833"
       width="135.46666"
       height="135.46666"
       x="0"
       y="0" />
    <path
       d="m 98.941415,67.733338 c 0,-0.938789 -0.0408,-1.836763 -0.12244,-2.775551 l 7.591935,-5.755185 c 1.63267,-1.224506 2.08166,-3.510253 1.06124,-5.306197 L 99.839395,40.712541 c -1.02042,-1.795943 -3.224544,-2.530647 -5.102122,-1.71431 L 85.96164,42.71257 c -1.510229,-1.061239 -3.102086,-2.000029 -4.77558,-2.775549 l -1.183691,-9.428706 c -0.244902,-2.040848 -2.000028,-3.591889 -4.040873,-3.591889 h -15.22471 c -2.081661,0 -3.83679,1.551041 -4.08169,3.591889 l -1.183691,9.428706 c -1.673493,0.77552 -3.265353,1.71431 -4.775579,2.775549 l -8.775637,-3.714339 c -1.877577,-0.816337 -4.081691,-0.08164 -5.102113,1.71431 l -7.632763,13.22468 c -1.020422,1.795944 -0.571436,4.040875 1.061242,5.306199 l 7.591943,5.755186 c -0.08164,0.897969 -0.12245,1.795943 -0.12245,2.734732 0,0.93879 0.04083,1.836759 0.12245,2.775549 l -7.591943,5.755186 c -1.632678,1.224508 -2.081664,3.510253 -1.061242,5.306199 l 7.632763,13.183859 c 1.020422,1.795953 3.224536,2.530653 5.102113,1.714313 l 8.775637,-3.714338 c 1.510226,1.061241 3.102086,2.000025 4.775579,2.775544 l 1.183691,9.42871 c 0.2449,2.04084 2.000029,3.59188 4.040874,3.59188 h 15.224707 c 2.040847,0 3.795975,-1.55104 4.040874,-3.59188 l 1.183693,-9.42871 c 1.673494,-0.775519 3.26535,-1.714303 4.775578,-2.775544 l 8.775632,3.714338 c 1.877579,0.81634 4.081701,0.0817 5.102121,-1.714313 l 7.632745,-13.183859 c 1.02043,-1.795946 0.57144,-4.040876 -1.06123,-5.306199 l -7.591935,-5.755186 c 0.12244,-0.93879 0.16326,-1.836759 0.16326,-2.775549 z M 68.492,82.019258 c -7.877665,0 -14.285919,-6.408256 -14.285919,-14.28592 0,-7.877665 6.408254,-14.285919 14.285919,-14.285919 7.877664,0 14.28592,6.408254 14.28592,14.285919 0,7.877664 -6.408256,14.28592 -14.28592,14.28592 z"
       id="path837"
       style="fill:#ffffff;fill-opacity:1;stroke-width:4.0817" />
  </g>
</svg>
